<?xml version="1.0" encoding="utf-8"?>
<svg
	xmlns="http://www.w3.org/2000/svg"
	xmlns:xlink="http://www.w3.org/1999/xlink"
	x="0px"
	y="0px"
	viewBox="0 0 180 180"
	xml:space="preserve">

<path class="st0"
	  d="M90,0C40.3,0,0,40.3,0,90s40.3,90,90,90s90-40.3,90-90S139.7,0,90,0z M90,155c-35.8,0-65-29.2-65-65
	  s29.2-65,65-65s65,29.2,65,65S125.8,155,90,155z"/>
<path class="st1"
	  d="M90,12.5c-42.8,0-77.5,34.7-77.5,77.5c0,42.8,34.7,77.5,77.5,77.5s77.5-34.7,77.5-77.5
	  C167.5,47.2,132.8,12.5,90,12.5z M90,155c-35.8,0-65-29.2-65-65s29.2-65,65-65s65,29.2,65,65S125.8,155,90,155z"/>
</svg>
