<?xml version="1.0" encoding="utf-8"?>
<!-- Generator: Adobe Illustrator 25.0.0, SVG Export Plug-In . SVG Version: 6.00 Build 0)  -->
<svg version="1.1" id="Слой_1" xmlns="http://www.w3.org/2000/svg" xmlns:xlink="http://www.w3.org/1999/xlink" x="0px" y="0px"
	 width="180px" height="180px" viewBox="0 0 180 180" style="enable-background:new 0 0 180 180;" xml:space="preserve">
<image style="overflow:visible;" width="130" height="130" xlink:href="../../../Eskulap/photo.png"  transform="matrix(1 0 0 1 25 25)">
</image>
<path d="M90,0C40.3,0,0,40.3,0,90s40.3,90,90,90s90-40.3,90-90S139.7,0,90,0z M90,155c-35.8,0-65-29.2-65-65s29.2-65,65-65
	s65,29.2,65,65S125.8,155,90,155z"/>
<path d="M90,12.5c-42.8,0-77.5,34.7-77.5,77.5s34.7,77.5,77.5,77.5s77.5-34.7,77.5-77.5S132.8,12.5,90,12.5z M90,155
	c-35.8,0-65-29.2-65-65s29.2-65,65-65s65,29.2,65,65S125.8,155,90,155z"/>
</svg>
